<svg width="16" height="16" viewBox="0 0 16 16" fill="none" xmlns="http://www.w3.org/2000/svg">
<path d="M6.4 0H9.6C11.2974 0 12.9253 0.691573 14.1255 1.92258C15.3257 3.15359 16 4.82319 16 6.5641C16 8.30501 15.3257 9.97462 14.1255 11.2056C12.9253 12.4366 11.2974 13.1282 9.6 13.1282V16C5.6 14.359 0 11.8974 0 6.5641C0 4.82319 0.674284 3.15359 1.87452 1.92258C3.07475 0.691573 4.70261 0 6.4 0ZM8 11.4872H9.6C10.2303 11.4872 10.8545 11.3598 11.4369 11.1124C12.0192 10.865 12.5484 10.5024 12.9941 10.0452C13.4398 9.58809 13.7934 9.04538 14.0346 8.44808C14.2758 7.85079 14.4 7.21061 14.4 6.5641C14.4 5.91759 14.2758 5.27742 14.0346 4.68012C13.7934 4.08283 13.4398 3.54011 12.9941 3.08296C12.5484 2.62581 12.0192 2.26318 11.4369 2.01577C10.8545 1.76836 10.2303 1.64103 9.6 1.64103H6.4C5.12696 1.64103 3.90606 2.15971 3.00589 3.08296C2.10571 4.00622 1.6 5.25842 1.6 6.5641C1.6 9.52615 3.5696 11.4593 8 13.5221V11.4872Z" fill="white"/>
<path d="M6.4 0H9.6C11.2974 0 12.9253 0.691573 14.1255 1.92258C15.3257 3.15359 16 4.82319 16 6.5641C16 8.30501 15.3257 9.97462 14.1255 11.2056C12.9253 12.4366 11.2974 13.1282 9.6 13.1282V16C5.6 14.359 0 11.8974 0 6.5641C0 4.82319 0.674284 3.15359 1.87452 1.92258C3.07475 0.691573 4.70261 0 6.4 0ZM8 11.4872H9.6C10.2303 11.4872 10.8545 11.3598 11.4369 11.1124C12.0192 10.865 12.5484 10.5024 12.9941 10.0452C13.4398 9.58809 13.7934 9.04538 14.0346 8.44808C14.2758 7.85079 14.4 7.21061 14.4 6.5641C14.4 5.91759 14.2758 5.27742 14.0346 4.68012C13.7934 4.08283 13.4398 3.54011 12.9941 3.08296C12.5484 2.62581 12.0192 2.26318 11.4369 2.01577C10.8545 1.76836 10.2303 1.64103 9.6 1.64103H6.4C5.12696 1.64103 3.90606 2.15971 3.00589 3.08296C2.10571 4.00622 1.6 5.25842 1.6 6.5641C1.6 9.52615 3.5696 11.4593 8 13.5221V11.4872Z" fill="#4E5D78"/>
</svg>
