<svg width="20" height="20" viewBox="0 0 16 16" fill="none" xmlns="http://www.w3.org/2000/svg">
      <path
        d="M0.868572 4.408C1.54776 3.08259 2.58969 1.96841 3.8779 1.18998C5.16612 0.411541 6.64985 -0.000466855 8.16327 3.96985e-07C10.3633 3.96985e-07 12.2114 0.792 13.6245 2.084L11.2841 4.3784C10.4376 3.5856 9.36163 3.1816 8.16327 3.1816C6.03673 3.1816 4.23674 4.5896 3.59592 6.48C3.43265 6.96 3.33959 7.472 3.33959 8C3.33959 8.528 3.43265 9.04 3.59592 9.52C4.23755 11.4112 6.03673 12.8184 8.16327 12.8184C9.26122 12.8184 10.1959 12.5344 10.9273 12.0544C11.3514 11.7808 11.7144 11.4258 11.9944 11.0108C12.2745 10.5958 12.4658 10.1295 12.5567 9.64H8.16327V6.5456H15.8514C15.9478 7.0688 16 7.6144 16 8.1816C16 10.6184 15.1102 12.6696 13.5657 14.0616C12.2155 15.284 10.3673 16 8.16327 16C7.09113 16.0004 6.02942 15.7938 5.03881 15.3919C4.0482 14.99 3.14812 14.4007 2.39001 13.6578C1.63189 12.9148 1.03061 12.0328 0.620518 11.062C0.210428 10.0912 -0.000428458 9.05069 6.53644e-07 8C6.53644e-07 6.7088 0.315103 5.488 0.868572 4.408Z"
        fill="white"
      />
      <path
        d="M0.868572 4.408C1.54776 3.08259 2.58969 1.96841 3.8779 1.18998C5.16612 0.411541 6.64985 -0.000466855 8.16327 3.96985e-07C10.3633 3.96985e-07 12.2114 0.792 13.6245 2.084L11.2841 4.3784C10.4376 3.5856 9.36163 3.1816 8.16327 3.1816C6.03673 3.1816 4.23674 4.5896 3.59592 6.48C3.43265 6.96 3.33959 7.472 3.33959 8C3.33959 8.528 3.43265 9.04 3.59592 9.52C4.23755 11.4112 6.03673 12.8184 8.16327 12.8184C9.26122 12.8184 10.1959 12.5344 10.9273 12.0544C11.3514 11.7808 11.7144 11.4258 11.9944 11.0108C12.2745 10.5958 12.4658 10.1295 12.5567 9.64H8.16327V6.5456H15.8514C15.9478 7.0688 16 7.6144 16 8.1816C16 10.6184 15.1102 12.6696 13.5657 14.0616C12.2155 15.284 10.3673 16 8.16327 16C7.09113 16.0004 6.02942 15.7938 5.03881 15.3919C4.0482 14.99 3.14812 14.4007 2.39001 13.6578C1.63189 12.9148 1.03061 12.0328 0.620518 11.062C0.210428 10.0912 -0.000428458 9.05069 6.53644e-07 8C6.53644e-07 6.7088 0.315103 5.488 0.868572 4.408Z"
        fill="#4E5D78"
      />
</svg>