<svg width="16" height="14" viewBox="0 0 16 14" fill="none" xmlns="http://www.w3.org/2000/svg">
<path d="M14.5941 1.33069C16.4037 3.04841 16.4661 5.78403 14.7829 7.5684L7.99905 14L1.21678 7.5684C-0.466386 5.78403 -0.403187 3.04386 1.40558 1.33069C3.21754 -0.384003 6.11589 -0.441563 8.00066 1.15801C9.87982 -0.439291 12.7838 -0.386275 14.5941 1.33069ZM2.53756 2.40237C1.34558 3.53085 1.28558 5.33718 2.38396 6.5308L7.99986 11.8559L13.6158 6.53156C14.7149 5.33718 14.6549 3.53312 13.4614 2.40085C12.2718 1.27237 10.3566 1.21784 9.09903 2.25998L5.7375 5.44321L4.60552 4.37229L6.86548 2.2312L6.79988 2.17894C5.5399 1.22087 3.69834 1.30266 2.53756 2.40237Z" fill="white"/>
<path d="M14.5941 1.33069C16.4037 3.04841 16.4661 5.78403 14.7829 7.5684L7.99905 14L1.21678 7.5684C-0.466386 5.78403 -0.403187 3.04386 1.40558 1.33069C3.21754 -0.384003 6.11589 -0.441563 8.00066 1.15801C9.87982 -0.439291 12.7838 -0.386275 14.5941 1.33069ZM2.53756 2.40237C1.34558 3.53085 1.28558 5.33718 2.38396 6.5308L7.99986 11.8559L13.6158 6.53156C14.7149 5.33718 14.6549 3.53312 13.4614 2.40085C12.2718 1.27237 10.3566 1.21784 9.09903 2.25998L5.7375 5.44321L4.60552 4.37229L6.86548 2.2312L6.79988 2.17894C5.5399 1.22087 3.69834 1.30266 2.53756 2.40237Z" fill="#4E5D78"/>
</svg>
